<svg width="50" height="50" viewBox="0 0 50 50" fill="none" xmlns="http://www.w3.org/2000/svg">
<g clip-path="url(#clip0_272_1910)">
<rect x="5" y="13" width="40" height="24" fill="white"/>
<path d="M32.6734 0H17.325C3.31876 0 -0.0015564 3.32031 -0.0015564 17.3266V32.675C-0.0015564 46.6812 3.31876 50.0016 17.325 50.0016H32.6734C46.6797 50.0016 50 46.6812 50 32.675V17.3266C50 3.32031 46.6469 0 32.6734 0ZM40.3641 35.6687H36.7344C35.3594 35.6687 34.9359 34.5781 32.4625 32.0719C30.3141 29.9891 29.3625 29.7125 28.8328 29.7125C28.0844 29.7125 27.8719 29.9234 27.8719 30.95V34.2297C27.8719 35.1094 27.5953 35.6375 25.2672 35.6375C21.4172 35.6375 17.1453 33.3094 14.15 28.9719C9.63282 22.6156 8.39688 17.8547 8.39688 16.8703C8.39688 16.3406 8.60782 15.8453 9.62501 15.8453H13.2625C14.1828 15.8453 14.5328 16.2687 14.8906 17.2531C16.6891 22.4453 19.6844 26.9937 20.9203 26.9937C21.3766 26.9937 21.5875 26.7828 21.5875 25.6187V20.2563C21.4484 17.7828 20.1469 17.5703 20.1469 16.6922C20.1469 16.2687 20.4969 15.8453 21.0578 15.8453H26.7781C27.5516 15.8453 27.8359 16.2688 27.8359 17.1797V24.4141C27.8359 25.1953 28.1859 25.4719 28.3969 25.4719C28.8531 25.4719 29.2438 25.1953 30.0891 24.3484C32.7016 21.4188 34.5734 16.9016 34.5734 16.9016C34.8172 16.3719 35.2406 15.8766 36.1609 15.8766H39.7984C40.8891 15.8766 41.1328 16.4375 40.8891 17.2188C40.4328 19.3344 35.9813 25.6172 35.9813 25.6172C35.5984 26.2516 35.4516 26.5281 35.9813 27.2359C36.3719 27.7656 37.6422 28.8641 38.4875 29.8484C40.0422 31.6141 41.2375 33.0953 41.5563 34.1203C41.9141 35.1375 41.3859 35.6672 40.3594 35.6672L40.3641 35.6687Z" fill="#699BF7"/>
</g>
<defs>
<clipPath id="clip0_272_1910">
<rect width="50" height="50" fill="white"/>
</clipPath>
</defs>
</svg>
