<svg width="50" height="50" viewBox="0 0 50 50" fill="none" xmlns="http://www.w3.org/2000/svg">
<g clip-path="url(#clip0_267_379)">
<path d="M1.06699 24.7008C1.06581 28.9017 2.17206 33.0037 4.27558 36.6192L0.865814 48.9723L13.6064 45.6576C17.1303 47.5611 21.0786 48.5585 25.0908 48.5587H25.1014C38.3465 48.5587 49.1283 37.8643 49.134 24.7196C49.1365 18.35 46.6389 12.3605 42.101 7.85427C37.5639 3.34845 31.5297 0.8657 25.1004 0.862793C11.8537 0.862793 1.07265 11.5566 1.06718 24.7008" fill="url(#paint0_linear_267_379)"/>
<path d="M0.208984 24.693C0.207617 29.0452 1.35352 33.2938 3.53203 37.0388L0 49.8347L13.1975 46.4012C16.8338 48.3684 20.9279 49.4056 25.0939 49.4072H25.1047C38.825 49.4072 49.9941 38.3281 50 24.7128C50.0023 18.1143 47.4148 11.9095 42.7148 7.24186C38.0143 2.57481 31.7643 0.00271318 25.1047 0C11.382 0 0.214453 11.0775 0.208984 24.693ZM8.06836 36.3938L7.57559 35.6176C5.5041 32.3494 4.41074 28.5727 4.4123 24.6946C4.4168 13.3777 13.6988 4.17054 25.1125 4.17054C30.6398 4.17287 35.8344 6.31085 39.7414 10.1899C43.6482 14.0694 45.798 19.2264 45.7967 24.7112C45.7916 36.0281 36.5094 45.2364 25.1047 45.2364H25.0965C21.383 45.2345 17.741 44.245 14.5648 42.375L13.809 41.9302L5.97734 43.9676L8.06836 36.3936V36.3938Z" fill="url(#paint1_linear_267_379)"/>
<path d="M18.8824 14.3699C18.4164 13.3422 17.926 13.3214 17.4828 13.3034C17.1199 13.2879 16.7051 13.2891 16.2906 13.2891C15.8758 13.2891 15.2018 13.4439 14.632 14.0612C14.0617 14.679 12.4547 16.172 12.4547 19.2087C12.4547 22.2455 14.6838 25.1802 14.9945 25.5924C15.3057 26.0038 19.2978 32.4348 25.6205 34.9088C30.8752 36.9649 31.9445 36.5559 33.085 36.4528C34.2256 36.3501 36.7654 34.9602 37.2836 33.5189C37.8021 32.0778 37.8021 30.8426 37.6467 30.5844C37.4912 30.3273 37.0764 30.1728 36.4543 29.8643C35.832 29.5556 32.7738 28.0623 32.2037 27.8563C31.6334 27.6505 31.2187 27.5478 30.8039 28.1658C30.3891 28.7829 29.1978 30.1728 28.8348 30.5844C28.4721 30.997 28.109 31.0484 27.4871 30.7397C26.8646 30.43 24.8613 29.779 22.4846 27.6765C20.6353 26.0404 19.3869 24.0201 19.024 23.4021C18.6611 22.785 18.9852 22.4505 19.2971 22.143C19.5766 21.8664 19.9193 21.4222 20.2307 21.062C20.5408 20.7015 20.6443 20.4443 20.8518 20.0327C21.0594 19.6207 20.9555 19.2602 20.8002 18.9515C20.6443 18.6428 19.4355 15.5902 18.8824 14.3699Z" fill="white"/>
</g>
<defs>
<linearGradient id="paint0_linear_267_379" x1="2414.27" y1="4811.81" x2="2414.27" y2="0.862793" gradientUnits="userSpaceOnUse">
<stop stop-color="#1FAF38"/>
<stop offset="1" stop-color="#60D669"/>
</linearGradient>
<linearGradient id="paint1_linear_267_379" x1="2500" y1="4983.47" x2="2500" y2="0" gradientUnits="userSpaceOnUse">
<stop stop-color="#F9F9F9"/>
<stop offset="1" stop-color="white"/>
</linearGradient>
<clipPath id="clip0_267_379">
<rect width="50" height="50" fill="white"/>
</clipPath>
</defs>
</svg>
