<svg width="90" height="90" viewBox="0 0 90 90" fill="none" xmlns="http://www.w3.org/2000/svg">
<g clip-path="url(#clip0_44_206)">
<path d="M45 0C20.1473 0 0 20.1473 0 45C0 69.8528 20.1473 90 45 90C69.8527 90 90 69.8528 90 45C90 20.1473 69.8527 0 45 0ZM45 9.77783C64.4527 9.77783 80.2167 25.5522 80.2167 45C80.2167 64.4479 64.4527 80.2167 45 80.2167C25.5473 80.2167 9.7833 64.4479 9.7833 45C9.78338 25.5522 25.5473 9.77783 45 9.77783ZM62.243 23.6316L36.1615 49.7186L27.702 41.2592L19.4018 49.5539L27.8613 58.0133L36.2164 66.3684L44.5112 58.0682L70.5981 31.9867L62.243 23.6316Z" fill="white"/>
</g>
<defs>
<clipPath id="clip0_44_206">
<rect width="90" height="90" fill="white"/>
</clipPath>
</defs>
</svg>
