<svg width="90" height="90" viewBox="0 0 90 90" fill="none" xmlns="http://www.w3.org/2000/svg">
<path d="M22.5 82.5C20.4375 82.5 18.6725 81.7663 17.205 80.2988C15.735 78.8288 15 77.0625 15 75V15C15 12.9375 15.735 11.1712 17.205 9.70125C18.6725 8.23375 20.4375 7.5 22.5 7.5H52.5L75 30V45H67.5V33.75H48.75V15H22.5V75H45V82.5H22.5ZM68.625 54.4688L72.6562 58.5L58.125 72.9375V76.875H62.0625L76.5937 62.4375L80.5312 66.375L64.4062 82.5H52.5V70.5938L68.625 54.4688ZM80.5312 66.375L68.625 54.4688L74.0625 49.0312C74.75 48.3438 75.625 48 76.6875 48C77.75 48 78.625 48.3438 79.3125 49.0312L85.9687 55.6875C86.6562 56.375 87 57.25 87 58.3125C87 59.375 86.6562 60.25 85.9687 60.9375L80.5312 66.375Z" fill="white"/>
</svg>
