<svg width="90" height="90" viewBox="0 0 90 90" fill="none" xmlns="http://www.w3.org/2000/svg">
<path d="M75 45C74 45 73.11 44.64 72.33 43.92C71.5475 43.2025 71.0937 42.3125 70.9687 41.25C70.1562 35.4375 67.7037 30.4838 63.6112 26.3888C59.5162 22.2963 54.5625 19.8437 48.75 19.0312C47.6875 18.9062 46.7975 18.4687 46.08 17.7187C45.36 16.9687 45 16.0625 45 15C45 13.9375 45.375 13.0462 46.125 12.3262C46.875 11.6087 47.75 11.3125 48.75 11.4375C56.625 12.3125 63.3438 15.5312 68.9062 21.0938C74.4688 26.6562 77.6875 33.375 78.5625 41.25C78.6875 42.25 78.39 43.125 77.67 43.875C76.9525 44.625 76.0625 45 75 45ZM59.3438 45C58.5312 45 57.8125 44.7188 57.1875 44.1562C56.5625 43.5938 56.0938 42.8438 55.7812 41.9062C55.2812 40.0938 54.3288 38.4837 52.9237 37.0763C51.5163 35.6712 49.9062 34.7188 48.0938 34.2188C47.1562 33.9062 46.4062 33.4375 45.8438 32.8125C45.2812 32.1875 45 31.4375 45 30.5625C45 29.3125 45.4375 28.2962 46.3125 27.5138C47.1875 26.7337 48.1562 26.4688 49.2188 26.7188C52.7188 27.5312 55.735 29.2025 58.2675 31.7325C60.7975 34.265 62.4688 37.2812 63.2812 40.7812C63.5312 41.8438 63.25 42.8125 62.4375 43.6875C61.625 44.5625 60.5938 45 59.3438 45ZM74.8125 78.75C66.75 78.75 58.8913 76.9525 51.2363 73.3575C43.5788 69.765 36.7975 65.015 30.8925 59.1075C24.985 53.2025 20.235 46.4212 16.6425 38.7638C13.0475 31.1087 11.25 23.25 11.25 15.1875C11.25 14.0625 11.625 13.125 12.375 12.375C13.125 11.625 14.0625 11.25 15.1875 11.25H30.375C31.25 11.25 32.0313 11.5312 32.7188 12.0937C33.4063 12.6562 33.8125 13.375 33.9375 14.25L36.375 27.375C36.5 28.25 36.485 29.0462 36.33 29.7638C36.1725 30.4837 35.8125 31.125 35.25 31.6875L26.25 40.875C28.875 45.375 32.1562 49.5938 36.0938 53.5312C40.0312 57.4688 44.375 60.875 49.125 63.75L57.9375 54.9375C58.5 54.375 59.235 53.9525 60.1425 53.67C61.0475 53.39 61.9375 53.3125 62.8125 53.4375L75.75 56.0625C76.625 56.25 77.3438 56.6712 77.9062 57.3262C78.4688 57.9837 78.75 58.75 78.75 59.625V74.8125C78.75 75.9375 78.375 76.875 77.625 77.625C76.875 78.375 75.9375 78.75 74.8125 78.75Z" fill="white"/>
</svg>
