<svg width="90" height="90" viewBox="0 0 90 90" fill="none" xmlns="http://www.w3.org/2000/svg">
<path d="M78.6 61.6875C78.6375 61.125 78.75 60.5625 78.75 60V61.875L78.6 61.6875ZM41.25 60C41.25 62.6625 41.8125 65.2125 42.825 67.5H22.5V71.25C22.5 73.3125 20.8125 75 18.75 75H15C12.9375 75 11.25 73.3125 11.25 71.25V41.25L19.05 18.75C19.8 16.575 21.9 15 24.375 15H65.625C68.1 15 70.2 16.575 70.95 18.75L78.75 41.25V60C78.75 49.65 70.35 41.25 60 41.25C49.65 41.25 41.25 49.65 41.25 60ZM30 50.625C30 47.5125 27.4875 45 24.375 45C21.2625 45 18.75 47.5125 18.75 50.625C18.75 53.7375 21.2625 56.25 24.375 56.25C27.4875 56.25 30 53.7375 30 50.625ZM71.25 37.5L65.625 20.625H24.375L18.75 37.5H71.25ZM85.7625 79.4625L70.35 64.05C71.8875 60.15 71.025 55.575 67.8 52.3875C64.425 48.975 59.3625 48.3 55.275 50.175L62.55 57.45L57.4875 62.55L50.025 55.2375C48 59.325 48.9375 64.3875 52.2375 67.8C53.7268 69.3193 55.6278 70.3701 57.7065 70.8232C59.7852 71.2762 61.951 71.1118 63.9375 70.35L79.35 85.725C80.025 86.4375 81.0375 86.4375 81.7125 85.725L85.6125 81.8625C86.4375 81.1875 86.4375 79.9875 85.7625 79.4625Z" fill="white"/>
</svg>
