<svg width="66" height="33" viewBox="0 0 66 33" fill="none" xmlns="http://www.w3.org/2000/svg">
<path d="M45 0L54 11H60C63.33 11 66 13.4475 66 16.5V24.75H60C60 26.938 59.0518 29.0365 57.364 30.5836C55.6761 32.1308 53.3869 33 51 33C48.6131 33 46.3239 32.1308 44.636 30.5836C42.9482 29.0365 42 26.938 42 24.75H24C24 26.938 23.0518 29.0365 21.364 30.5836C19.6761 32.1308 17.3869 33 15 33C12.6131 33 10.3239 32.1308 8.63604 30.5836C6.94821 29.0365 6 26.938 6 24.75H0V16.5C0 13.4475 2.67 11 6 11L15 0H45ZM28.5 4.125H17.25L11.58 11H28.5V4.125ZM33 4.125V11H48.42L42.75 4.125H33ZM15 20.625C13.8065 20.625 12.6619 21.0596 11.818 21.8332C10.9741 22.6068 10.5 23.656 10.5 24.75C10.5 25.844 10.9741 26.8932 11.818 27.6668C12.6619 28.4404 13.8065 28.875 15 28.875C16.1935 28.875 17.3381 28.4404 18.182 27.6668C19.0259 26.8932 19.5 25.844 19.5 24.75C19.5 23.656 19.0259 22.6068 18.182 21.8332C17.3381 21.0596 16.1935 20.625 15 20.625ZM51 20.625C49.8065 20.625 48.6619 21.0596 47.818 21.8332C46.9741 22.6068 46.5 23.656 46.5 24.75C46.5 25.844 46.9741 26.8932 47.818 27.6668C48.6619 28.4404 49.8065 28.875 51 28.875C52.1935 28.875 53.3381 28.4404 54.182 27.6668C55.0259 26.8932 55.5 25.844 55.5 24.75C55.5 23.656 55.0259 22.6068 54.182 21.8332C53.3381 21.0596 52.1935 20.625 51 20.625Z" fill="#FF4D00"/>
</svg>
