<svg width="50" height="50" viewBox="0 0 50 50" fill="none" xmlns="http://www.w3.org/2000/svg">
<path d="M25 50C21.5417 50 18.2917 49.3433 15.25 48.03C12.2083 46.7183 9.5625 44.9375 7.3125 42.6875C5.0625 40.4375 3.28167 37.7917 1.97 34.75C0.656667 31.7083 0 28.4583 0 25C0 21.5417 0.656667 18.2917 1.97 15.25C3.28167 12.2083 5.0625 9.5625 7.3125 7.3125C9.5625 5.0625 12.2083 3.28083 15.25 1.9675C18.2917 0.655833 21.5417 0 25 0C28.4583 0 31.7083 0.655833 34.75 1.9675C37.7917 3.28083 40.4375 5.0625 42.6875 7.3125C44.9375 9.5625 46.7183 12.2083 48.03 15.25C49.3433 18.2917 50 21.5417 50 25C50 28.4583 49.3433 31.7083 48.03 34.75C46.7183 37.7917 44.9375 40.4375 42.6875 42.6875C40.4375 44.9375 37.7917 46.7183 34.75 48.03C31.7083 49.3433 28.4583 50 25 50ZM25 45C30.5833 45 35.3125 43.0625 39.1875 39.1875C43.0625 35.3125 45 30.5833 45 25H25V5C19.4167 5 14.6875 6.9375 10.8125 10.8125C6.9375 14.6875 5 19.4167 5 25C5 30.5833 6.9375 35.3125 10.8125 39.1875C14.6875 43.0625 19.4167 45 25 45Z" fill="#FF4D00"/>
</svg>
