<svg width="50" height="50" viewBox="0 0 50 50" fill="none" xmlns="http://www.w3.org/2000/svg">
<path d="M24.9999 0C20.0554 0 15.2219 1.46622 11.1107 4.21326C6.99946 6.96029 3.79515 10.8648 1.90296 15.4329C0.0107711 20.0011 -0.484312 25.0277 0.480318 29.8773C1.44495 34.7268 3.82597 39.1814 7.32228 42.6777C10.8186 46.174 15.2732 48.555 20.1227 49.5196C24.9722 50.4843 29.9989 49.9892 34.567 48.097C39.1352 46.2048 43.0396 43.0005 45.7867 38.8892C48.5337 34.778 49.9999 29.9445 49.9999 25C49.9938 18.3715 47.3579 12.0162 42.6708 7.3291C37.9838 2.64202 31.6285 0.00612902 24.9999 0ZM24.9999 44.4444C21.1542 44.4444 17.3948 43.304 14.1972 41.1675C10.9996 39.0309 8.50733 35.9941 7.03562 32.4411C5.56392 28.8881 5.17886 24.9784 5.92912 21.2066C6.67939 17.4347 8.5313 13.9701 11.2506 11.2507C13.97 8.53134 17.4347 6.67944 21.2065 5.92917C24.9784 5.17891 28.888 5.56397 32.441 7.03567C35.994 8.50738 39.0308 10.9996 41.1674 14.1972C43.304 17.3949 44.4444 21.1542 44.4444 25C44.4383 30.1551 42.3877 35.0973 38.7425 38.7425C35.0973 42.3877 30.1551 44.4383 24.9999 44.4444ZM35.1851 29.6296C35.179 31.5923 34.3966 33.4729 33.0088 34.8607C31.621 36.2485 29.7404 37.0309 27.7777 37.037V37.963C27.7777 38.6997 27.4851 39.4062 26.9641 39.9271C26.4432 40.4481 25.7367 40.7407 24.9999 40.7407C24.2632 40.7407 23.5567 40.4481 23.0358 39.9271C22.5148 39.4062 22.2222 38.6997 22.2222 37.963V37.037H19.4444C18.7077 37.037 18.0011 36.7444 17.4802 36.2234C16.9593 35.7025 16.6666 34.996 16.6666 34.2593C16.6666 33.5225 16.9593 32.816 17.4802 32.2951C18.0011 31.7741 18.7077 31.4815 19.4444 31.4815H27.7777C28.2689 31.4815 28.7399 31.2864 29.0872 30.9391C29.4345 30.5918 29.6296 30.1208 29.6296 29.6296C29.6296 29.1385 29.4345 28.6675 29.0872 28.3202C28.7399 27.9729 28.2689 27.7778 27.7777 27.7778H22.2222C20.2576 27.7778 18.3735 26.9973 16.9843 25.6082C15.5952 24.219 14.8148 22.3349 14.8148 20.3704C14.8148 18.4058 15.5952 16.5217 16.9843 15.1325C18.3735 13.7434 20.2576 12.963 22.2222 12.963V12.037C22.2222 11.3003 22.5148 10.5938 23.0358 10.0728C23.5567 9.55191 24.2632 9.25926 24.9999 9.25926C25.7367 9.25926 26.4432 9.55191 26.9641 10.0728C27.4851 10.5938 27.7777 11.3003 27.7777 12.037V12.963H30.5555C31.2922 12.963 31.9987 13.2556 32.5197 13.7766C33.0406 14.2975 33.3333 15.004 33.3333 15.7407C33.3333 16.4774 33.0406 17.184 32.5197 17.7049C31.9987 18.2259 31.2922 18.5185 30.5555 18.5185H22.2222C21.731 18.5185 21.26 18.7136 20.9127 19.0609C20.5654 19.4082 20.3703 19.8792 20.3703 20.3704C20.3703 20.8615 20.5654 21.3325 20.9127 21.6798C21.26 22.0271 21.731 22.2222 22.2222 22.2222H27.7777C29.7404 22.2283 31.621 23.0107 33.0088 24.3985C34.3966 25.7864 35.179 27.6669 35.1851 29.6296Z" fill="#FF4D00"/>
</svg>
